# xmcd
#
# Track frame offsets:
#	150
#	17328
#	38392
#	56861
#	74227
#	100241
#	116281
#	133608
#	155042
#	173444
#	190827
#	216924
#
# Disc length: 3108 seconds
#
# Revision: 1
# Processed by: cddbd v1.5.2PL0 Copyright (c) Steve Scherf et al.
# Submitted via: audiograbber 1.83.01
#
DISCID=a10c220c
DTITLE=Various Artist - CB-20163
DYEAR=1999
DGENRE=Karaoke
TTITLE0=Too Many Highways (Vocals)
TTITLE1=What I Need To Do (Vocals)
TTITLE2=The Things We Do (Vocals)
TTITLE3=Buy Me A Rose (Vocals)
TTITLE4=Love's The Only House (Vocals)
TTITLE5=She's More (Vocals)
TTITLE6=Too Many Highways
TTITLE7=What I Need To Do
TTITLE8=The Things We Do
TTITLE9=Buy Me A Rose
TTITLE10=Love's The Only House
TTITLE11=She's More
EXTD=
EXTT0=
EXTT1=
EXTT2=
EXTT3=
EXTT4=
EXTT5=
EXTT6=
EXTT7=
EXTT8=
EXTT9=
EXTT10=
EXTT11=
PLAYORDER=
